# xmcd CD database file generated by Grip 3.3.1
# 
# Track frame offsets:
#       150
#       15561
#       33130
#       45441
#       71588
#       81437
#       97248
#       112459
#       122161
#       136142
#       147244
#       158136
#       172717
# 
# Disc length: 2490 seconds
# 
# Revision: 3
# Processed by: cddbd v1.5.2PL0 Copyright (c) Steve Scherf et al.
# Submitted via: Grip 3.3.1
# 
DISCID=ad09b80d
DTITLE=Various Artist - Best Of Blues [CD1)
DYEAR=2004
DGENRE=Blues
TTITLE0=B.B. King - Caldonia
TTITLE1=Richard Berry - Round About Midnight
TTITLE2=Amos Milbourne - Trouble In Mind
TTITLE3=Canned Heat - Dust My Broom
TTITLE4=Buddy Guy - First Time I Met The Blues
TTITLE5=Memphis Slim - Forty Four Blues
TTITLE6=Johnny Otis - Bad Luck Shadow
TTITLE7=Baby Washington - Nobody Cares
TTITLE8=Joe Liggins - Goin' Back To LA
TTITLE9=Amos Milbourne - Bad Bad Whiskey
TTITLE10=Roy Milton - Information Blues
TTITLE11=Gatemouth Moore - I Ain't Mad At You Baby
TTITLE12=Jelly Roll Morton - London Blues
EXTD=YEAR: 2003
EXTT0=
EXTT1=
EXTT2=
EXTT3=
EXTT4=
EXTT5=
EXTT6=
EXTT7=
EXTT8=
EXTT9=
EXTT10=
EXTT11=
EXTT12=
PLAYORDER=
